<svg xmlns="http://www.w3.org/2000/svg" width="49.5" height="28.802" viewBox="0 0 49.5 28.802">
  <path id="Icon_zocial-yahoo" data-name="Icon zocial-yahoo" d="M-6.75,3.924l.216.684a3.641,3.641,0,0,0,.27.36.751.751,0,0,0,.2.18l.072.072.684.36h4L9.018,17.964a1.329,1.329,0,0,1,.4.9v6.912a.83.83,0,0,1-.09.432.389.389,0,0,1-.2.18H9.018q-4.033,0-5.112.108-.359,0-.36.324V28.8H22.122V26.75a.223.223,0,0,0-.09-.18.27.27,0,0,0-.163-.072H16.614q-.324,0-.324-.539V18.687a.3.3,0,0,1,.054-.253,1.464,1.464,0,0,1,.2-.252l.108-.109q.4-.395,9.5-8.963h4.788a1.057,1.057,0,0,0,.648-.252l.612-.684a.959.959,0,0,0,.216-.648V7.02a.325.325,0,0,0-.108-.162A.219.219,0,0,0,32.2,6.8H16.434l-.252.216a.858.858,0,0,0,.054.45.977.977,0,0,0,.2.342l.072.144.828.828.648.252h4.14l-7.452,7.02L6.462,5.58H7.938a1.394,1.394,0,0,0,.792-.144l2.448-.756a.287.287,0,0,0,.108-.036.5.5,0,0,0,.162-.18.593.593,0,0,0,.09-.324v-.5a.243.243,0,0,0-.072-.18.2.2,0,0,0-.144-.072H-6.39a.386.386,0,0,0-.36.252ZM36.09,0l6.66.252L39.762,20.664l-2.195-.108Zm.468,27.468.144-3.961,3.961.145-.145,3.96Z" transform="translate(6.75)" fill="#eef9f8"/>
</svg>
